<?xml version="1.0" standalone="no"?>
<!DOCTYPE svg PUBLIC "-//W3C//DTD SVG 20010904//EN"
 "http://www.w3.org/TR/2001/REC-SVG-20010904/DTD/svg10.dtd">
<svg version="1.0" xmlns="http://www.w3.org/2000/svg"
 width="2048.000000pt" height="2048.000000pt" viewBox="0 0 2048.000000 2048.000000"
 preserveAspectRatio="xMidYMid meet">
<metadata>
Created by potrace 1.11, written by Peter Selinger 2001-2013
</metadata>
<g transform="translate(0.000000,2048.000000) scale(0.100000,-0.100000)"
fill="#000000" stroke="none">
<path d="M0 14730 l0 -90 1490 0 c1621 0 1538 -3 1576 55 22 33 11 69 -29 99
l-28 21 -1505 3 -1504 3 0 -91z"/>
<path d="M3357 14806 c-49 -18 -64 -31 -70 -63 -7 -36 7 -68 36 -87 21 -14
473 -16 4438 -19 l4414 -3 80 -20 c207 -53 312 -105 458 -227 62 -51 153 -163
211 -259 53 -87 119 -268 137 -378 10 -59 14 -683 16 -3008 l3 -2932 -1872 0
c-1030 0 -1878 4 -1884 8 -6 4 -14 26 -18 49 -11 75 -37 136 -82 197 l-44 58
42 27 c59 38 143 137 175 207 38 84 45 252 14 351 -26 89 -86 180 -177 273
l-73 75 79 160 c79 157 81 160 132 189 100 54 130 77 144 112 21 49 -1 99 -53
120 -21 9 -39 17 -41 19 -1 1 12 44 30 96 30 87 33 106 36 246 3 129 1 164
-17 235 -35 141 -87 232 -200 350 -56 59 -120 115 -148 130 -76 42 -241 94
-317 101 -38 4 -73 12 -77 18 -4 7 -10 30 -13 53 -9 57 -38 145 -79 246 -70
172 -98 223 -184 342 -33 46 -65 92 -71 104 -53 101 -278 288 -462 384 -36 18
-98 55 -137 81 -41 26 -96 52 -125 59 -29 7 -65 19 -80 26 -64 33 -124 -4
-116 -70 4 -35 4 -36 -17 -17 -64 58 -106 46 -130 -38 -72 -244 -76 -252 -190
-441 -85 -140 -280 -329 -428 -414 -79 -45 -262 -100 -339 -100 -43 -1 -72 4
-80 12 -34 34 1 327 55 460 83 206 277 395 537 522 l85 42 110 -5 c61 -3 131
-11 156 -18 41 -11 50 -10 73 4 56 37 38 110 -36 144 -68 32 -219 57 -300 50
-57 -5 -90 -16 -181 -60 -197 -95 -319 -184 -442 -325 -163 -185 -229 -344
-255 -616 -14 -146 -7 -216 31 -296 24 -52 35 -64 71 -79 64 -28 207 -36 288
-17 255 61 447 170 615 347 156 165 322 440 349 579 4 19 14 56 22 82 l15 48
109 -96 c129 -112 246 -236 302 -317 21 -31 75 -122 118 -202 119 -217 196
-412 206 -525 l7 -67 -54 -30 c-162 -93 -334 -387 -305 -521 7 -30 39 -52 76
-52 18 0 20 -7 20 -65 l0 -65 -33 0 c-65 0 -87 -55 -64 -160 27 -119 139 -380
190 -444 19 -23 57 -75 85 -117 28 -42 69 -92 92 -111 36 -32 39 -38 34 -69
-4 -21 -20 -45 -40 -62 -46 -39 -201 -274 -243 -371 -35 -78 -36 -86 -39 -223
-4 -140 -3 -143 25 -194 15 -29 45 -65 67 -80 44 -33 135 -69 172 -69 l25 0
-22 -31 c-30 -43 -49 -112 -49 -181 l0 -58 -203 0 -204 0 -7 333 c-8 429 -15
504 -53 565 -42 69 -76 82 -232 89 l-129 6 -4 141 c-4 164 -18 204 -91 257
l-42 31 -293 -6 c-309 -6 -382 -15 -445 -58 -51 -36 -61 -69 -65 -229 l-4
-146 -62 -6 c-75 -7 -123 -26 -157 -64 -48 -52 -52 -78 -54 -374 -2 -151 -6
-335 -10 -407 l-7 -132 -3037 -2 -3036 -3 -3 -87 -3 -88 4075 0 c2241 0 4077
-4 4080 -8 3 -4 12 -62 21 -128 8 -65 22 -159 31 -209 48 -281 55 -304 112
-337 17 -10 47 -18 67 -18 81 0 138 71 169 208 15 71 43 310 48 422 l3 55 117
3 116 3 6 -68 c40 -456 47 -509 79 -568 27 -48 79 -85 122 -85 52 0 95 37 133
115 47 95 69 195 95 420 l22 190 2035 3 c2244 3 2082 7 2146 -59 l29 -30 5
-277 c3 -152 3 -798 0 -1435 l-5 -1158 -42 -40 -42 -39 -6716 0 -6715 0 0
-2295 0 -2295 10240 0 10240 0 0 1014 0 1014 -62 6 c-35 3 -1224 8 -2643 11
-1419 3 -3062 8 -3651 12 l-1071 6 -4 126 c-5 182 -4 401 5 871 l8 415 1758 0
1758 0 26 24 c50 47 27 121 -42 141 -25 6 -610 10 -1762 10 -949 0 -1730 4
-1736 8 -16 10 -28 381 -19 587 l7 165 212 0 c159 0 225 4 263 15 59 18 132
78 159 132 18 37 19 91 19 1548 l0 1510 -26 45 c-28 47 -80 95 -139 125 -27
14 -64 20 -158 23 l-122 4 0 2957 c0 2084 -3 2974 -10 3016 -19 105 -81 297
-126 390 -99 208 -280 387 -511 505 -78 40 -102 48 -258 88 -214 55 80 52
-4626 52 -3599 -1 -4340 -3 -4372 -14z m5971 -4658 c7 -7 12 -25 12 -40 0 -22
-5 -28 -22 -28 -13 0 -30 -6 -39 -13 -64 -49 -38 -157 38 -157 25 0 29 -14 13
-54 -13 -36 -48 -34 -102 7 -62 47 -90 100 -85 160 6 74 58 116 168 136 3 1
10 -4 17 -11z m-622 -34 c75 -35 118 -93 111 -148 -14 -107 -225 -200 -340
-151 -63 28 -106 63 -138 113 -33 52 -35 71 -14 112 21 41 70 72 145 92 83 23
163 17 236 -18z m-1581 -1076 c20 -18 26 -36 31 -84 4 -34 3 -82 0 -108 l-7
-46 -59 0 c-60 0 -70 7 -70 51 0 11 -10 30 -23 43 -20 20 -37 24 -128 29 -160
10 -201 -8 -205 -86 l-2 -42 -60 -3 -59 -3 -7 32 c-7 38 -6 153 3 194 4 20 14
31 31 36 14 4 138 7 277 8 248 1 252 1 278 -21z m1438 -19 c88 -11 325 -6 375
7 20 6 22 3 21 -32 0 -22 -12 -73 -27 -114 -25 -70 -29 -75 -58 -78 -26 -3
-36 4 -67 41 -20 24 -52 52 -72 62 -48 22 -79 9 -123 -51 -44 -59 -78 -61
-115 -6 -22 34 -87 175 -87 189 0 3 14 3 31 -1 16 -3 72 -11 122 -17z m-90
-326 c10 -10 40 -20 66 -23 l48 -5 -19 -95 c-11 -52 -21 -97 -23 -99 -2 -1
-16 1 -32 6 -25 9 -29 16 -35 64 -4 30 -13 80 -21 112 -8 31 -12 57 -9 57 3 0
14 -8 25 -17z m405 -47 c21 -2 30 -11 38 -37 24 -71 22 -80 -24 -116 -63 -48
-72 -44 -72 25 0 54 -7 97 -25 151 l-7 24 31 -22 c17 -12 43 -24 59 -25z
m3155 -4646 l37 0 0 -972 0 -971 -112 6 c-62 4 -393 7 -735 7 l-622 0 -1 968
0 967 698 -3 c383 -1 714 -3 735 -2z m-6086 -526 c-3 -3 -12 -4 -19 -1 -8 3
-5 6 6 6 11 1 17 -2 13 -5z m990 -10 c-3 -3 -12 -4 -19 -1 -8 3 -5 6 6 6 11 1
17 -2 13 -5z m-3669 -1361 c-10 -2 -26 -2 -35 0 -10 3 -2 5 17 5 19 0 27 -2
18 -5z m395 0 c-13 -2 -33 -2 -45 0 -13 2 -3 4 22 4 25 0 35 -2 23 -4z"/>
<path d="M8613 10069 c-38 -11 -73 -52 -73 -86 0 -92 107 -133 174 -66 45 44
29 120 -29 148 -18 8 -35 15 -37 14 -1 0 -17 -5 -35 -10z"/>
<path d="M4719 12625 c-32 -17 -53 -66 -46 -104 3 -16 32 -75 63 -132 117
-213 141 -270 194 -447 38 -129 55 -215 69 -362 7 -63 16 -145 21 -182 17
-118 12 -376 -10 -519 -18 -112 -18 -133 -7 -162 18 -41 37 -57 79 -63 39 -7
79 20 104 68 27 52 47 215 51 418 6 279 -23 559 -81 782 -57 219 -102 322
-244 562 -61 102 -84 132 -109 142 -40 17 -51 17 -84 -1z"/>
<path d="M9373 12606 c-23 -20 -28 -32 -28 -68 0 -37 9 -57 50 -117 129 -187
185 -302 244 -511 62 -216 90 -410 96 -675 9 -372 12 -400 45 -435 49 -53 138
-34 159 33 25 82 13 621 -19 837 -19 130 -90 396 -128 481 -116 256 -225 425
-298 464 -43 22 -88 19 -121 -9z"/>
<path d="M682 12605 c-37 -27 -42 -72 -14 -135 13 -30 30 -72 38 -93 7 -21 34
-82 59 -134 26 -53 52 -119 60 -147 7 -28 25 -89 40 -136 53 -174 75 -317 75
-500 0 -279 -18 -445 -76 -679 -17 -69 1 -116 47 -126 60 -13 97 24 153 155
26 59 48 168 75 370 10 81 0 420 -18 570 -16 130 -97 387 -171 545 -23 50 -55
118 -71 152 -66 147 -134 201 -197 158z"/>
<path d="M6951 11910 c-79 -44 -154 -103 -246 -194 -84 -84 -91 -93 -187 -210
-119 -146 -140 -258 -53 -280 37 -9 68 13 101 71 36 62 49 79 133 171 38 42
78 86 88 97 35 39 169 152 223 190 85 58 100 75 100 109 0 37 -7 49 -37 65
-34 18 -64 13 -122 -19z"/>
<path d="M723 5574 c-37 -9 -73 -53 -73 -91 0 -75 60 -133 136 -133 46 0 89
34 100 77 10 39 -3 95 -28 120 -24 23 -90 36 -135 27z"/>
<path d="M443 5160 c-45 -27 -56 -54 -51 -118 4 -42 10 -60 27 -73 83 -68 209
3 198 111 -9 86 -97 127 -174 80z"/>
<path d="M1035 5171 c-118 -49 -51 -245 78 -228 106 14 139 112 66 200 -27 33
-35 37 -77 36 -26 0 -56 -4 -67 -8z"/>
<path d="M16970 3633 c-47 -24 -68 -68 -49 -101 8 -14 25 -33 39 -43 24 -17
111 -18 1773 -25 l1747 -7 0 91 0 92 -1288 0 c-709 0 -1491 3 -1738 6 -423 5
-451 5 -484 -13z"/>
</g>
</svg>
